<?xml version="1.0" encoding="UTF-8" standalone="no"?>
<!-- Created with Inkscape (http://www.inkscape.org/) -->

<svg
   version="1.1"
   id="svg48"
   width="904.81427"
   height="301.85654"
   viewBox="0 0 904.81427 301.85654"
   sodipodi:docname="logo orange.svg"
   inkscape:version="1.4 (e7c3feb1, 2024-10-09)"
   inkscape:export-filename="logo2.png"
   inkscape:export-xdpi="96"
   inkscape:export-ydpi="96"
   xmlns:inkscape="http://www.inkscape.org/namespaces/inkscape"
   xmlns:sodipodi="http://sodipodi.sourceforge.net/DTD/sodipodi-0.dtd"
   xmlns="http://www.w3.org/2000/svg"
   xmlns:svg="http://www.w3.org/2000/svg">
  <defs
     id="defs52">
    <clipPath
       clipPathUnits="userSpaceOnUse"
       id="clipPath370">
      <rect
         style="fill:#ffffff"
         id="rect372"
         width="710.30676"
         height="82.539734"
         x="149.96657"
         y="299.93314" />
    </clipPath>
  </defs>
  <sodipodi:namedview
     id="namedview50"
     pagecolor="#ffffff"
     bordercolor="#000000"
     borderopacity="0.25"
     inkscape:showpageshadow="2"
     inkscape:pageopacity="0.0"
     inkscape:pagecheckerboard="0"
     inkscape:deskcolor="#d1d1d1"
     showgrid="false"
     inkscape:zoom="0.83136097"
     inkscape:cx="360.25266"
     inkscape:cy="164.79003"
     inkscape:window-width="1512"
     inkscape:window-height="945"
     inkscape:window-x="0"
     inkscape:window-y="37"
     inkscape:window-maximized="0"
     inkscape:current-layer="g54" />
  <g
     inkscape:groupmode="layer"
     inkscape:label="Image"
     id="g54"
     transform="translate(-49.82736,-74.180299)">
    <rect
       style="fill:#ffffff;fill-opacity:0"
       id="rect426-7"
       width="1000.9396"
       height="388.28552"
       x="-0.20374493"
       y="0.76483327" />
    <g
       id="g1"
       style="fill:#f06027;fill-opacity:1;fill-rule:nonzero">
      <path
         id="path898"
         style="fill:#f06027;fill-opacity:1;stroke-width:0.205508;fill-rule:nonzero"
         d="m 726.26772,374.66609 -0.47197,-0.38218 0.51839,-0.51838 c 0.51633,-0.51633 2.05207,-0.97786 3.25387,-0.97786 1.18101,0 1.58479,-0.30519 1.73576,-1.31195 2.94341,-10.90739 5.39601,-21.49735 7.74313,-31.71185 -0.14433,-0.54067 -0.24326,-0.58636 -1.57805,-0.7288 -2.23178,-0.23816 -2.34885,-0.28639 -2.34885,-0.96757 0,-1.32542 -0.72287,-1.26389 14.09182,-1.19947 15.17411,0.066 14.13173,-0.0577 14.097,1.67294 -0.0103,0.51176 -0.16644,1.28264 -0.34704,1.71306 -0.18059,0.43042 -0.45003,1.47645 -0.59874,2.32451 -0.29495,1.68199 -0.84817,3.02837 -1.3796,3.35757 -0.24921,0.15438 -0.48723,0.11273 -0.89955,-0.15743 -0.60341,-0.39538 -0.60827,-0.5042 -0.17939,-4.02279 0.0787,-0.64583 0.0202,-1.04876 -0.19414,-1.3358 -0.29479,-0.39485 -0.58233,-0.41335 -7.30988,-0.47017 -4.41749,-0.0373 -7.14556,0.0171 -7.38909,0.14746 -1.49033,4.21682 -2.06604,7.92357 -3.15274,11.87329 -0.23805,0.72776 -0.36274,1.49175 -0.29047,1.77969 0.11839,0.47171 0.24291,0.51422 1.91401,0.65342 0.98305,0.0819 3.01199,0.10216 4.50875,0.045 2.47221,-0.0943 2.77762,-0.1486 3.33577,-0.59277 0.33792,-0.26891 0.6783,-0.76636 0.7564,-1.10545 0.0781,-0.33909 0.43177,-1.1059 0.78595,-1.70401 0.60162,-1.01601 0.69122,-1.08355 1.36323,-1.02755 0.87028,0.0725 1.00994,0.55227 0.54248,1.86342 -0.383,1.36887 -0.55621,2.76045 -0.937,4.10522 -0.44567,1.51733 -0.7858,3.07646 -1.32007,4.52086 -0.47045,1.06215 -0.58616,1.18167 -1.14399,1.18167 -0.85287,0 -1.04608,-0.46437 -1.04608,-2.51424 0,-1.06317 -0.0941,-1.81334 -0.24661,-1.96584 -0.17426,-0.17426 -1.3651,-0.24595 -4.0588,-0.24435 -4.0366,0.002 -5.34824,0.12021 -5.45456,0.48992 -0.72476,2.91268 -1.52541,5.48038 -2.15501,8.1842 -0.38971,2.14606 -1.30444,4.36174 -1.04637,6.53125 0.35262,0.52726 10.69639,0.31333 15.57978,-0.32223 0.84967,-0.11058 0.88977,-0.15118 1.59269,-1.61261 0.41963,-1.10866 1.03783,-2.22057 1.56076,-3.17588 0.12378,-0.41045 0.52628,-1.10386 0.89445,-1.5409 0.59225,-0.70304 0.72039,-0.76734 1.11171,-0.55792 0.32019,0.17136 0.44229,0.43049 0.44229,0.93864 -0.30014,2.78242 -1.35773,5.28199 -2.11585,7.80918 -0.23581,0.97614 -0.28631,1.03137 -1.06953,1.16983 -0.45212,0.0799 -7.07723,0.15065 -14.72246,0.15716 -13.25436,0.0113 -13.92237,-0.006 -14.3724,-0.37033 z m -18.83138,0.0772 c -0.27968,-0.19897 -0.40628,-0.44662 -0.32997,-0.64549 0.17144,-0.44677 1.70081,-1.06636 2.99373,-1.21285 1.9311,-0.21878 1.97297,-0.23997 2.12417,-1.07513 2.94451,-10.85288 5.60161,-21.20627 7.81443,-31.74742 -0.15065,-0.80303 -0.25017,-0.85168 -2.22664,-1.08858 -0.64654,-0.0775 -1.27952,-0.2662 -1.40661,-0.41934 -0.35113,-0.42309 0.0486,-1.38385 0.64504,-1.55054 0.27419,-0.0766 3.46248,-0.14853 7.08508,-0.1598 6.8491,-0.0213 7.07977,0.006 7.07977,0.84265 0,0.78501 -0.68483,1.13191 -2.5395,1.2864 -1.73059,0.14416 -1.78417,0.16475 -2.37728,0.91362 -3.02826,11.04488 -5.76784,21.61347 -8.08584,32.51644 0.12014,0.12014 0.94307,0.34427 1.82874,0.49807 1.62427,0.28206 2.1315,0.60145 2.1315,1.34217 0,0.19237 -0.16183,0.42696 -0.35964,0.52132 -0.1978,0.0944 -3.41144,0.20076 -7.14141,0.23644 -5.90435,0.0565 -6.8405,0.0231 -7.23557,-0.25796 z m -25.86859,0.72217 c -1.94228,-0.35768 -3.93939,-0.85526 -5.69042,-1.44477 -3.24751,-1.58271 -5.39569,-4.72428 -6.42293,-7.60381 -0.46487,-1.25095 -0.34438,-7.86386 0.16664,-9.14513 0.86612,-3.17288 1.82005,-5.65052 3.07576,-8.40386 1.23013,-2.01164 2.58326,-4.02779 4.27515,-5.67347 1.05057,-1.11114 2.39199,-2.15975 3.52027,-2.97987 0.33582,-0.28257 0.72974,-0.51377 0.87537,-0.51377 0.70329,-0.32376 1.36736,-0.71367 2.07426,-1.00268 1.01389,-0.34522 1.95019,-0.80155 2.97184,-1.05241 2.14799,-0.5676 4.41212,-0.85896 6.07171,-0.92895 3.58697,-0.14603 9.45021,0.13579 10.10393,0.48565 0.2265,0.12122 1.04944,0.31894 1.82876,0.43938 1.89402,0.29271 2.46714,0.54743 2.7459,1.22041 0.18679,0.45097 0.16535,0.7475 -0.10645,1.47231 -0.1872,0.49918 -0.46355,1.55495 -0.61412,2.34616 -0.59058,3.10337 -1.64261,4.48514 -2.64878,3.47897 -0.24511,-0.24511 -0.32295,-0.76289 -0.32295,-2.14817 0,-1.00388 -0.0971,-2.03766 -0.21574,-2.29729 -2.88439,-2.22652 -6.92491,-2.64466 -9.3404,-2.55193 -4.35529,0.17155 -6.81078,0.85984 -9.6589,2.70746 -0.97086,0.62981 -3.37923,3.16784 -3.8132,4.01849 -0.34483,0.59425 -0.7981,1.16568 -1.11798,1.68735 -2.41461,4.53895 -3.85163,9.65562 -3.96492,14.77776 l -0.0824,4.67052 c 0.89309,1.81361 2.10577,3.96082 3.86875,4.87405 1.20992,0.75973 2.69026,0.96394 3.87333,1.09493 1.98869,0.21421 2.76998,0.19961 5.47716,-0.1024 1.85177,-0.20657 3.49755,-0.503 3.97963,-0.71678 0.45212,-0.20049 1.01341,-0.42272 1.24731,-0.49385 0.67913,-0.20649 1.25932,-1.18388 1.4216,-2.39487 0.25228,-1.47384 0.71623,-2.85064 1.0317,-4.30657 0.0736,-0.50863 0.32272,-1.4992 0.55361,-2.20125 0.2309,-0.70205 0.37079,-1.4042 0.31088,-1.56032 -0.0599,-0.15612 -0.78789,-0.4458 -1.61773,-0.64374 -2.30632,-0.55011 -2.89461,-1.07352 -2.05778,-1.83085 0.33185,-0.30032 1.08602,-0.34011 6.4458,-0.34011 5.88672,0 6.08683,0.0133 6.62777,0.43875 0.74625,0.587 0.48428,0.8314 -1.73086,1.61473 -0.94678,0.3348 -1.79507,0.68238 -1.88508,0.77239 -0.86078,3.28615 -1.75917,6.36987 -2.44252,9.50464 -0.34049,1.97184 -1.43124,2.91207 -3.71334,3.20087 -0.6098,0.0772 -1.43228,0.27198 -1.82772,0.43291 -1.9354,0.78763 -11.98548,1.61987 -13.27288,1.09912 z m -54.54521,-0.60111 c -1.45248,-0.40402 0.16679,-1.72187 2.52627,-2.05601 1.57686,-0.17332 1.63839,-0.49212 2.09564,-1.59951 2.67315,-10.47825 5.19374,-20.77476 7.54881,-30.5046 0.0572,-1.31491 -0.19457,-1.52079 -2.08807,-1.70737 -1.67537,-0.16508 -2.03121,-0.44727 -1.66843,-1.3231 0.22017,-0.53153 0.36555,-0.60155 1.49372,-0.71947 1.7775,-0.18579 15.67874,-0.13336 16.91092,0.0638 4.06743,0.65075 5.08336,0.88677 6.1647,1.43221 1.19411,0.60232 2.87121,2.19858 3.20071,3.04641 0.5416,1.39358 0.35207,5.72367 -0.29428,6.72311 -0.1496,0.23133 -0.34003,0.69804 -0.42317,1.03713 -0.3402,1.38754 -3.12547,4.91009 -4.72337,5.97367 -1.0931,0.72758 -2.06957,1.29848 -2.58879,1.51356 -1.91133,0.79173 -2.17492,1.34879 -1.37124,2.89786 1.94389,4.31612 3.52762,8.5537 5.27283,12.25476 0.52166,0.70935 0.75718,0.85386 1.57401,0.96582 0.54641,0.0749 1.25659,0.35745 1.64714,0.65534 1.55923,1.18928 0.58601,1.53707 -4.22491,1.50982 -1.98941,-0.0113 -3.84747,-0.0846 -4.12904,-0.16296 -0.33025,-0.0919 -0.5741,-0.35813 -0.68713,-0.75017 -1.76581,-4.68712 -3.43762,-9.0145 -5.13601,-13.25598 -0.36139,-1.24411 -0.95262,-1.93663 -1.84179,-2.15736 -2.02403,-0.11927 -3.60008,0.032 -5.69019,0.15257 -1.13166,4.48887 -2.90089,9.51667 -3.08611,13.62676 0.14102,0.16991 0.5907,0.3067 1.00824,0.3067 1.1053,0 3.16372,0.57756 3.46028,0.9709 0.87163,1.15607 0.037,1.29298 -7.73723,1.26921 -3.68486,-0.0113 -6.93094,-0.0848 -7.21351,-0.1634 z m 22.09216,-19.34397 c 2.24784,-0.32592 4.27918,-1.50688 5.3946,-2.62242 0.81946,-0.82316 1.48994,-1.61858 1.48994,-1.76759 0,-0.149 0.2373,-0.71722 0.52733,-1.2627 0.74434,-1.39991 1.30242,-5.69343 0.89895,-6.91595 -0.387,-1.17263 -0.87573,-1.71864 -2.10478,-2.35147 -1.02164,-0.52604 -1.25244,-0.55614 -5.28125,-0.6887 -2.31711,-0.0763 -4.36364,-0.0651 -4.54785,0.0248 -0.42836,0.20904 -0.98163,1.58869 -1.12965,2.81694 -0.86696,3.71087 -1.59963,6.77159 -2.44287,10.10273 -0.33046,0.64237 -0.6002,2.35829 -0.41725,2.65431 0.16575,0.26818 6.09506,0.276 7.61283,0.01 z m -58.01781,19.20354 c -0.4603,-0.32316 -0.46364,-0.34681 -0.10505,-0.74305 0.20371,-0.22509 0.54333,-0.50182 0.75471,-0.61495 0.3094,-0.16559 3.51115,-0.77993 4.08077,-0.783 0.0797,-4.1e-4 0.20058,-0.34758 0.26874,-0.77144 2.49876,-10.28017 5.61729,-21.12375 7.85472,-30.60164 0.62816,-2.43122 0.32038,-1.91718 -1.91436,-2.13249 -1.80292,-0.31312 -2.10855,-0.4812 -1.9912,-1.0951 0.23312,-1.21946 -0.45813,-1.16646 14.45912,-1.10869 l 13.6485,0.0528 0.0624,1.087 c 0.0362,1.2828 -0.52412,2.45924 -0.79478,3.60945 -0.29447,1.62416 -1.00317,3.85245 -1.34366,4.22471 -0.20176,0.2206 -0.42722,0.2431 -0.94408,0.0942 l -0.67903,-0.1956 0.009,-1.43001 c 0.005,-0.78651 0.0857,-2.04042 0.17936,-2.78647 l 0.17021,-1.35645 -0.66745,-0.13348 c -0.93662,-0.18733 -14.02326,-0.16129 -14.32175,0.0285 -1.22802,4.83688 -2.32894,9.75461 -3.22678,13.89854 0.10852,0.28275 0.71172,0.32507 4.63381,0.32507 h 4.50906 l 0.50194,-0.56515 c 0.27606,-0.31083 0.84861,-1.247 1.27232,-2.08038 0.83114,-1.63476 1.00589,-1.78567 1.82855,-1.5792 0.49161,0.12339 0.52814,0.2021 0.41562,0.89558 -0.56052,3.04862 -1.44677,6.24806 -2.20465,9.06772 -0.24403,1.16544 -0.65957,1.63072 -1.3402,1.50061 -0.69563,-0.13298 -0.91027,-0.76858 -0.88253,-2.61347 0.0125,-0.8307 -0.039,-1.6102 -0.11442,-1.73223 -0.14902,-0.24112 -7.94672,-0.27815 -9.04359,-0.043 -0.49488,0.10612 -0.65325,0.28788 -0.85351,0.97955 -1.13017,4.53157 -2.93409,9.54222 -3.15401,13.7634 0.15151,0.39908 0.35769,0.44128 2.59537,0.53114 4.07344,0.16358 12.73104,-0.31059 13.87533,-0.75995 1.2564,-2.0047 2.17259,-4.42393 3.36346,-6.27825 0.67674,-0.65592 0.72923,-0.67219 1.06942,-0.33136 0.59613,2.42462 -0.40813,4.87186 -1.18356,7.02142 -0.36851,0.8855 -0.53215,1.72799 -0.96756,2.60444 -0.26461,0.21969 -3.14785,0.28359 -14.83669,0.32879 -13.11445,0.0507 -14.55393,0.0241 -14.98369,-0.27767 z m -41.71155,0.004 c -0.35584,-0.24924 -0.41311,-0.40329 -0.25782,-0.69347 0.25012,-0.46734 1.99389,-1.05182 3.57049,-1.19677 0.97697,-0.0898 1.22897,-0.19059 1.35668,-0.54251 0.86041,-2.821 1.53486,-5.23588 2.07708,-7.90024 0.86334,-4.04003 2.21051,-8.19396 2.97075,-11.84976 1.06697,-3.82963 1.57761,-6.77015 2.58312,-10.22487 0.42734,-1.27535 0.50292,-2.33802 0.20033,-2.81639 -0.11543,-0.18249 -0.81011,-0.38544 -1.77584,-0.51883 -1.8546,-0.25615 -2.23194,-0.58472 -1.71712,-1.49518 l 0.31856,-0.56338 5.0585,0.048 c 4.73384,0.0449 5.10579,0.0759 5.79532,0.48269 0.40525,0.2391 0.73681,0.55054 0.73681,0.69209 0,0.14154 0.22051,0.67207 0.49002,1.17895 3.92287,8.78215 7.38095,16.21679 10.68935,24.09903 0.0723,0.288 0.22026,0.52364 0.32885,0.52364 0.35652,0 1.04893,-1.65102 1.34804,-3.21431 1.90201,-8.22792 3.35127,-14.54368 4.8282,-21.23088 -0.11768,-0.18601 -0.82236,-0.37929 -1.87587,-0.51449 -1.87911,-0.24117 -2.20399,-0.48578 -1.85511,-1.39678 l 0.21643,-0.56515 2.62532,-0.0311 c 4.71379,-0.0558 8.78532,0.0722 9.04746,0.28444 0.14129,0.11439 0.25689,0.41653 0.25689,0.67143 0,0.68826 -0.35191,0.86073 -2.07627,1.01758 -2.13823,0.19449 -2.78263,0.60631 -2.97172,1.89916 -2.72358,10.89528 -5.585,21.43037 -7.91119,31.42112 -0.12255,0.89437 -0.35421,1.82987 -0.5148,2.07891 -0.52053,0.80721 -2.55591,0.87072 -3.22767,0.10071 -0.16698,-0.1914 -0.41945,-0.71791 -0.56106,-1.17003 -4.63509,-10.24228 -8.43481,-20.13792 -12.45075,-28.47743 -0.4012,-0.85788 -0.78719,-1.69307 -1.3301,-2.2194 -0.67384,-0.2349 -0.6569,-0.265 -1.02249,1.81751 -0.25979,1.2481 -0.69337,2.57011 -0.93404,3.66093 -1.2545,4.73421 -2.2936,9.77388 -3.57867,14.22369 -0.78467,2.93796 -1.52155,6.17383 -2.1595,8.69552 -0.37804,1.33813 -0.21984,1.78541 0.63148,1.78541 1.03248,0 2.60322,0.47414 3.13007,0.94483 l 0.55404,0.49499 -0.48516,0.41039 c -0.45894,0.3882 -0.78698,0.41039 -6.06815,0.41039 -4.72421,0 -5.65336,-0.0493 -6.04046,-0.32043 z m -35.39246,0.13654 c -1.1144,-0.30998 -0.27587,-1.44984 1.07195,-1.45715 0.92545,-0.13239 1.76559,-0.48622 2.65793,-0.71632 0.9946,-0.15863 0.94607,-0.18775 1.50676,-2.21293 2.05581,-9.53852 5.07228,-19.24109 6.99894,-27.81301 0.18834,-1.00863 0.38984,-2.08903 0.44779,-2.4009 0.16118,-0.86748 -0.20868,-1.11799 -1.88218,-1.27481 -1.88226,-0.17638 -2.29812,-0.42611 -1.95686,-1.1751 0.13385,-0.29377 0.46872,-0.63681 0.74415,-0.7623 0.67583,-0.30793 26.637,-0.32265 27.21105,-0.0154 0.47273,0.253 0.51256,0.96366 0.10822,1.93136 -0.43808,1.88531 -0.94897,3.79941 -1.45827,5.56247 -0.18351,0.8105 -0.35651,1.08773 -0.81909,1.31253 -1.07952,0.52459 -1.228,0.2077 -1.29306,-2.75978 -0.0332,-1.51413 -0.15326,-2.7513 -0.28205,-2.90649 -5.17923,-0.47199 -8.07344,-0.2702 -14.36282,-0.2702 l -0.17584,0.46239 c -1.14155,3.56671 -1.55566,6.39292 -2.41032,9.71028 -0.63727,1.65598 -0.93885,3.24199 -0.7114,3.7412 3.21799,0.92171 4.79413,0.47172 9.3756,0.47172 l 0.64946,-1.08583 c 0.47488,-1.01027 0.97894,-2.02591 1.63569,-2.81873 0.59366,-0.52125 0.77504,-0.5845 1.13048,-0.39428 0.38681,0.20702 0.41095,0.34474 0.2795,1.59481 -1.06751,3.16092 -0.89762,7.07312 -2.70967,9.68241 -1.13459,0.89247 -1.51107,0.40977 -1.5715,-2.01487 -0.0254,-1.02062 -0.1211,-1.9307 -0.21259,-2.02241 -3.30523,-0.29105 -5.83984,-0.24739 -9.38325,-0.29775 -1.51842,5.1998 -3.12262,9.87392 -3.90218,14.74723 v 0.69419 l 4.57256,-4.2e-4 c 6.39325,-4.1e-4 11.20187,-0.32302 11.86812,-0.79607 0.45581,-0.32363 2.04816,-3.09957 2.98663,-5.2066 0.40498,-0.90924 1.48902,-1.68891 1.88793,-1.35785 0.36124,0.2998 0.33052,1.6652 -0.0583,2.58939 -0.56223,2.06343 -1.13053,3.65338 -1.63491,5.66721 -0.0745,0.46957 -0.34204,0.99341 -0.65604,1.28443 l -0.53029,0.49152 -14.3042,-0.0205 c -7.86732,-0.0113 -14.53541,-0.0848 -14.81798,-0.1634 z m -42.59163,-0.0381 c -0.1978,-0.11521 -0.35964,-0.32927 -0.35964,-0.47567 0,-0.73566 1.62274,-1.32167 4.25211,-1.53556 l 1.59999,-0.13015 0.48899,-1.02754 c 0.26894,-0.56515 0.61535,-1.74755 0.76979,-2.62756 0.26939,-1.43814 0.81004,-2.94707 1.03398,-4.21172 1.85195,-7.94115 4.21388,-16.37444 5.93619,-23.52918 0.24701,-1.64713 0.27404,-1.63838 -4.61413,-1.49281 -5.84839,0.17416 -5.75641,0.15694 -6.4124,1.2005 -0.29803,0.47412 -0.60927,1.18571 -0.69163,1.58132 -0.0824,0.3956 -0.27489,0.95047 -0.42784,1.23305 -0.15294,0.28257 -0.41553,0.86186 -0.58352,1.28731 -0.34019,0.86159 -0.69551,1.07933 -1.45162,0.88956 -0.7567,-0.18992 -0.87326,-0.99602 -0.35838,-2.47848 0.23681,-0.68184 0.48817,-1.65586 0.55856,-2.16449 0.19198,-1.38717 0.92436,-3.32478 1.47588,-3.90467 l 0.48863,-0.51377 h 15.83601 c 15.43875,0 15.84333,0.01 16.12766,0.39892 0.40192,0.54976 0.365,1.67984 -0.10543,3.22721 -0.2184,0.71834 -0.49198,1.83396 -0.60796,2.47914 -0.23344,1.29857 -0.88066,2.72538 -1.31121,2.89059 -0.44142,0.16939 -1.40586,-0.0824 -1.52725,-0.39878 -0.0608,-0.1585 0.0475,-1.04793 0.24073,-1.97652 0.19322,-0.9286 0.31994,-2.05785 0.2816,-2.50946 -0.0908,-1.06905 -0.12958,-1.07636 -5.87534,-1.10691 -5.30001,-0.0282 -5.19699,-0.0643 -5.58921,1.96041 -2.3936,8.80633 -4.45348,18.55817 -6.67532,26.82257 -0.16867,0.40369 -0.40787,1.36744 -0.53156,2.14165 -0.27265,1.70677 -0.17967,1.81481 1.73037,2.0105 1.67052,0.17115 2.59443,0.47404 3.0562,1.00192 0.34221,0.39121 0.34343,0.44099 0.0195,0.79889 -0.32555,0.35973 -0.80774,0.38134 -8.37979,0.37545 -5.07371,-0.004 -8.16688,-0.0834 -8.39399,-0.21572 z m -37.23985,0.89409 c -1.24058,-0.31513 -1.65566,-1.20262 -1.1162,-2.38662 0.33845,-0.74281 1.02576,-0.95711 3.06964,-0.95711 1.82556,0 1.34013,-0.004 1.8399,-0.51378 2.60637,-11.43506 6.10112,-21.78841 8.55465,-32.33253 -0.96543,-0.31464 -2.42529,-0.0695 -3.29823,-0.24056 -0.47219,0 -0.9695,-0.11097 -1.10514,-0.24661 -0.31973,-0.31973 -0.31973,-2.06417 0,-2.3839 0.29133,-0.29132 16.73094,-0.35596 17.18582,-0.0676 0.14986,0.095 0.32243,0.54525 0.3835,1.00054 0.16619,1.23905 -0.37689,1.69754 -2.01073,1.69754 -3.04417,0.14678 -2.15983,0.10958 -4.73022,0.0752 -2.51976,9.6983 -5.29594,21.69197 -7.23462,30.15957 l -0.11749,1.77189 0.94662,0.12975 c 0.52064,0.0714 3.76729,0.068 7.21477,-0.008 7.00721,-0.15347 6.71593,-0.0855 7.19308,-1.6781 0.30303,-0.69438 0.71398,-1.26854 0.93613,-1.88664 0.41038,-1.11307 1.1146,-2.19204 1.57509,-3.13519 0.49646,-0.8902 1.05197,-1.17264 1.8394,-1.38452 1.24851,0 1.43856,0.2568 1.43856,1.9438 -0.44942,2.88635 -2.76945,9.2733 -3.29682,10.21078 -16.06942,0.48687 -10.7611,0.36465 -16.02098,0.35633 -7.06435,-0.0124 -13.02538,-0.0686 -13.24673,-0.1248 z m -28.47149,-0.55091 c -1.18681,-0.25048 -2.38903,-0.60179 -2.67161,-0.78069 -1.86837,-0.92777 -3.88639,-2.04959 -5.06846,-3.73417 -1.88559,-2.81766 -2.33019,-5.41472 -1.83366,-10.71123 0.14094,-2.80734 1.09983,-5.64437 1.96992,-8.09297 0.8165,-2.15145 1.82448,-3.76611 2.8675,-5.7532 0.40667,-0.88414 2.54876,-3.20514 4.29987,-4.65898 1.81354,-1.53162 3.27368,-2.22609 5.16314,-3.16724 3.5283,-1.50527 7.05054,-1.51732 9.35063,-1.52787 3.56157,-0.0501 5.60027,0.3256 8.3231,1.19842 0.28257,0.15937 0.91713,0.48105 1.41013,0.71484 1.18473,0.56184 3.29584,2.73882 4.10539,4.23348 0.70272,1.29745 1.26582,3.90555 1.26374,5.85331 -0.002,1.90469 -0.59975,6.40371 -1.02385,7.70657 -0.98499,3.42793 -2.41095,6.39245 -3.36124,8.28567 -0.34597,0.64363 -0.78783,1.23253 -1.18634,1.82871 -2.20362,2.80295 -5.06985,5.04977 -8.00807,6.75955 -3.21502,1.62154 -6.99991,2.14642 -10.56523,2.2431 -2.34475,0.0474 -3.27639,-0.0261 -5.03496,-0.3973 z m 9.19302,-2.38729 c 1.23748,-0.20235 2.30776,-0.78901 3.44451,-1.22757 1.97917,-1.27873 3.93071,-3.01291 5.26623,-5.03496 0.35568,-0.56514 0.81526,-1.27258 1.02128,-1.57207 1.53934,-3.46382 3.04367,-7.35659 3.59187,-10.86119 0.27596,-1.78491 0.73989,-3.71905 0.84125,-5.34322 0.17045,-2.85637 -0.33387,-4.89418 -1.66477,-6.72678 -0.89529,-1.2328 -1.64492,-1.72488 -3.7114,-2.4363 -1.4004,-0.48211 -1.97964,-0.56666 -3.90825,-0.57043 -3.95402,-0.008 -7.43858,1.25857 -10.24587,3.7234 -0.87235,0.76594 -3.21134,3.72342 -3.21134,4.06051 -0.79264,1.30987 -1.3187,2.79441 -1.85159,4.10179 -1.30766,4.4379 -2.82425,8.58892 -2.87889,13.41197 0.005,1.77616 0.82141,4.82318 1.50007,5.59534 1.00776,1.44279 2.3993,2.14148 3.81846,2.80595 1.16464,0.31376 6.22148,0.36032 7.98844,0.0736 z m -46.54339,2.95227 c -2.49392,-11.85921 -4.49933,-22.47507 -6.21272,-33.32983 -0.18363,-1.57917 -0.32179,-2.04358 -0.77806,-2.61541 -0.47886,-0.60014 -0.71654,-0.71359 -1.73683,-0.82902 -1.43328,-0.16216 -1.74241,-0.44753 -1.35672,-1.25244 l 0.2759,-0.57581 6.60416,-0.0542 c 3.99663,-0.0328 6.81522,0.026 7.13872,0.14904 0.37818,0.14378 0.53457,0.35292 0.53457,0.71487 0,0.66505 -0.40804,0.86248 -2.15784,1.0441 -2.59103,0.26894 -2.69004,0.44093 -2.2807,3.96181 1.13031,8.00354 2.48631,16.05348 4.11073,23.04209 0.20558,0.17062 0.52269,-0.16504 1.39265,-1.47412 5.28425,-7.83195 10.81344,-16.4647 15.59413,-23.59066 0.24063,-0.35515 0.39607,-0.86588 0.35964,-1.18168 -0.0614,-0.53179 -0.13532,-0.56518 -1.68737,-0.76168 -1.88727,-0.23894 -2.26331,-0.55416 -1.69527,-1.4211 l 0.35239,-0.53781 5.59321,0.0547 5.59322,0.0547 0.0634,0.65425 c 0.0751,0.77538 -0.2097,0.97323 -1.70744,1.18604 -0.56515,0.0803 -1.40631,0.31181 -1.86924,0.51446 -0.82944,0.36308 -1.11754,0.69428 -2.71248,3.11825 -7.12644,10.37037 -13.12312,19.98439 -19.62697,29.36069 -2.47227,3.72515 -2.88439,4.13486 -3.79105,3.76882 z m -68.08573,-1.06419 c -0.46271,-0.37468 -0.46329,-0.38151 -0.0663,-0.77847 0.24436,-0.24436 1.07835,-0.54267 2.13948,-0.76527 2.80898,-0.58926 2.73873,-0.5536 2.90002,-1.47229 2.33233,-8.54567 4.45388,-17.57928 6.45414,-25.60191 0.50373,-2.31152 1.49634,-4.43783 1.26325,-6.68667 -0.0902,-0.0902 -0.91263,-0.26015 -1.82764,-0.37758 -1.91156,-0.24533 -2.23863,-0.51319 -1.78427,-1.46125 l 0.28774,-0.60039 12.94428,-0.0587 c 7.11936,-0.0323 13.24461,-0.005 13.61168,0.0606 1.29302,0.23107 1.50791,1.5956 0.59871,3.80173 -0.16264,0.39465 -0.36251,1.21483 -0.44415,1.82263 -0.14883,1.10803 -0.93967,3.17133 -1.30117,3.39474 -0.10607,0.0655 -0.49358,0.0143 -0.86113,-0.11378 l -0.66829,-0.23296 0.16572,-1.66553 c 0.24094,-2.4215 0.22198,-3.36864 -0.0734,-3.66425 -0.39819,-0.39856 -13.96286,-0.49238 -14.49907,-0.10029 -0.23979,0.17533 -0.52264,0.8868 -0.75876,1.90856 -0.96904,3.64129 -1.51166,6.55176 -2.4994,9.85601 -0.26237,0.75543 -0.37892,1.44552 -0.29834,1.76655 0.12976,0.51704 0.17528,0.52904 2.44822,0.64561 2.96004,0.15181 6.45071,-0.1037 7.28077,-0.53295 0.47566,-0.24597 0.68924,-0.54759 0.85653,-1.20953 0.26776,-1.05955 1.37527,-2.62991 1.85167,-2.62552 0.69846,0.006 0.92076,0.33145 0.79186,1.15772 -0.55925,3.13764 -1.24235,6.64668 -2.20788,9.24195 -0.53393,1.19005 -0.64535,1.31116 -1.20616,1.31116 -0.8372,0 -1.08125,-0.53139 -1.01977,-2.22044 0.0903,-2.48128 0.47965,-2.30074 -4.96141,-2.30074 h -4.70459 l -0.23428,0.87341 c -1.29823,4.95892 -2.41594,9.51128 -3.0106,14.0019 0.26342,0.36026 0.62172,0.38493 5.40303,0.37201 6.48124,-0.0175 10.87735,-0.43673 11.19144,-1.06724 0.0845,-0.16954 0.25525,-0.53946 0.37953,-0.82203 0.66835,-1.31988 1.3496,-2.65184 1.8748,-4.02366 0.001,-0.10409 0.33057,-0.53615 0.73242,-0.96012 0.63001,-0.6647 0.78921,-0.73951 1.15599,-0.54322 0.61174,2.52936 -0.43002,4.78582 -1.2032,7.08704 -0.30179,1.13563 -0.76319,2.23151 -1.40627,2.78106 -0.33909,0.0723 -6.9642,0.1424 -14.72246,0.15577 -13.40929,0.0231 -14.129,0.006 -14.57275,-0.35368 z m -38.00881,0.23142 c -0.65489,-0.24245 -0.84202,-0.50651 -0.58143,-0.8205 0.39784,-0.47936 1.70871,-1.06788 2.66903,-1.19826 1.67613,-0.22756 1.80373,-0.29102 2.21793,-1.10291 1.67785,-5.70792 2.80095,-11.05972 4.12032,-16.25506 1.23159,-4.93047 2.65878,-10.30523 3.54762,-14.71251 0.061,-1.43213 -0.19811,-1.65673 -2.13139,-1.84723 -1.6578,-0.16336 -2.03408,-0.45946 -1.5407,-1.21245 0.18435,-0.28135 0.58832,-0.58237 0.89772,-0.66893 0.3094,-0.0866 4.53914,-0.15659 9.39941,-0.15561 8.3967,0.002 8.94103,0.0248 10.92795,0.46315 2.9956,0.66093 4.71626,1.58549 6.03202,3.24115 0.42837,0.53904 0.5776,1.00146 0.67429,2.08948 0.1617,1.8196 -0.15032,5.29505 -0.52745,5.87497 -0.67411,1.689 -1.8147,3.22373 -2.85658,4.53412 -1.1014,1.22034 -1.85712,1.85129 -3.23643,2.70212 -3.35656,1.40278 -3.14804,3.21975 -2.08163,5.97648 1.64118,3.5182 2.87829,6.89529 4.37381,10.07395 0.4825,0.76388 0.63054,0.85443 1.58074,0.96697 1.76298,0.2088 2.84783,1.09406 2.17119,1.77174 -0.26567,0.26608 -1.00702,0.33438 -4.19781,0.38676 -4.70001,0.0771 -4.97233,-0.11362 -5.52707,-1.42768 -0.26844,-0.63588 -0.41669,-1.26287 -0.64674,-1.71063 -0.5721,-1.71427 -1.29204,-3.43307 -1.97058,-4.94013 -0.57311,-1.58387 -1.19895,-2.99782 -1.73129,-4.51228 -0.22357,-0.43851 -0.54967,-1.28983 -0.72467,-1.89183 -0.4814,-1.65593 -0.69195,-1.73506 -4.4367,-1.6676 l -3.1571,0.0569 -0.22882,1.03143 c -0.12585,0.56728 -0.32599,1.21463 -0.44474,1.43856 -0.11876,0.22392 -0.32063,1.08648 -0.44859,1.91679 -0.25543,1.40009 -0.77314,2.8467 -1.0271,4.11017 -0.12821,0.83032 -0.36451,1.76377 -0.52511,2.07433 -0.42112,0.81435 -0.62634,2.61675 -0.33757,2.9647 0.13427,0.16178 0.87156,0.34611 1.71797,0.42951 1.7208,0.16957 2.70438,0.52793 3.00846,1.09612 0.16811,0.31412 0.13434,0.47594 -0.15377,0.73668 -0.3266,0.29557 -1.1855,0.33225 -7.44307,0.3179 -3.89062,-0.009 -7.21258,-0.0676 -7.38212,-0.13035 z m 23.94174,-19.93273 c 2.25562,-0.7969 2.55236,-1.0043 4.49708,-3.14315 1.27663,-2.27308 2.05181,-5.03198 1.9271,-7.6016 -0.40893,-2.73714 -1.22356,-3.21045 -3.33744,-4.21514 h -4.41835 -4.41836 l -0.37614,0.79773 c -1.18407,4.43836 -2.2645,8.77768 -3.26802,12.9856 -0.72607,2.05834 -0.81448,2.01467 3.79845,1.8761 3.64594,-0.10952 4.07878,-0.16363 5.59568,-0.69954 z m -43.25954,19.89542 c -0.68805,-0.19139 -0.67359,-0.86427 0.0258,-1.19947 0.49055,-0.23512 2.32327,-0.71908 3.70778,-0.9791 0.72726,-0.13659 1.3229,-1.15008 1.51027,-2.56975 0.24498,-1.36925 0.71941,-2.69233 0.99753,-4.02006 1.88502,-8.53108 4.28747,-18.44616 6.10076,-26.46741 -0.16785,-0.44149 -0.35821,-0.51676 -1.62968,-0.64445 -1.81736,-0.18251 -2.26391,-0.46543 -1.92135,-1.21728 0.13543,-0.29722 0.48459,-0.63103 0.77591,-0.74179 0.60319,-0.22933 11.46097,-0.25711 12.72672,-0.0326 0.65156,0.11559 0.85977,0.26366 1.02287,0.72742 0.27959,0.79502 -0.14616,1.07522 -1.89999,1.2504 -1.98305,0.19807 -2.63649,0.44708 -2.88412,1.09905 -2.77547,10.2572 -4.95987,19.92037 -7.53778,29.43016 -0.56144,1.87578 -0.6572,3.05603 -0.25688,3.16626 0.14129,0.0389 0.90424,0.17029 1.69544,0.29197 1.04908,0.16133 1.53594,0.34135 1.7982,0.66486 0.44208,0.54532 0.44698,0.69242 0.0367,1.10269 -0.28128,0.28129 -1.18931,0.3203 -7.03866,0.30246 -3.69365,-0.0113 -6.94692,-0.0848 -7.2295,-0.1634 z m -43.66505,-0.14823 c -0.18266,-0.18266 -0.30013,-0.43698 -0.26103,-0.56515 0.11503,-0.37711 1.81628,-1.11576 2.92714,-1.27089 1.50303,-0.20991 1.89326,-0.40893 2.27943,-1.16253 7.62472,-12.44501 13.90044,-23.01312 20.85565,-34.02048 l 0.64915,-0.87341 h 2.31658 c 3.11375,0 3.12059,0.006 3.37795,2.97987 1.26498,10.5823 2.69872,20.80649 3.85097,30.57002 0.0702,1.10239 0.22918,2.08558 0.35337,2.18486 0.12419,0.0993 0.54947,0.23002 0.94508,0.2905 1.54863,0.2368 2.64612,0.59749 2.99671,0.98488 0.34671,0.38311 0.34745,0.42446 0.0135,0.75845 -0.32087,0.32087 -1.02979,0.35324 -7.73687,0.35324 -6.4292,0 -7.42524,-0.0416 -7.70562,-0.322 -0.29233,-0.29233 -0.28273,-0.35754 0.10418,-0.70768 0.5813,-0.52608 1.7011,-0.88988 3.23263,-1.05025 0.70547,-0.0739 1.38855,-0.26189 1.51797,-0.41783 0.26305,-0.31695 0.15369,-2.12581 -0.33355,-5.51707 -0.16239,-1.1303 -0.36777,-2.70244 -0.45639,-3.49364 l -0.16112,-1.43856 -7.17873,-0.0541 -7.17873,-0.0541 -0.57922,0.55493 c -1.61235,2.16338 -2.88539,4.81082 -4.17907,6.84879 -0.31984,0.50863 -0.7967,1.25343 -1.05969,1.65511 -0.777,1.18675 -0.57882,1.83853 0.559,1.83853 0.71981,0 2.35146,0.64305 2.71868,1.07145 0.34221,0.39923 0.34342,0.44955 0.0195,0.80745 -0.32049,0.35415 -0.74997,0.3817 -5.95038,0.3817 -4.88708,0 -5.64749,-0.0425 -5.93707,-0.33212 z m 28.06707,-16.01649 c 0.42097,-0.2177 0.58367,-0.42973 0.51248,-0.66791 -0.24237,-0.81093 -0.54527,-3.20422 -0.73342,-5.79493 -0.34856,-2.66177 -0.613,-5.22275 -0.93617,-7.80932 -0.0787,-1.18681 -0.18899,-2.23478 -0.24513,-2.32882 -1.2675,0.65007 -1.82419,2.01766 -2.51674,3.15086 -0.33493,0.50863 -0.80319,1.24846 -1.04058,1.64406 -0.85686,1.35846 -1.65886,2.91164 -2.45941,4.11017 -0.78544,1.12577 -1.48206,2.49603 -2.14546,3.5964 -0.21256,0.33909 -0.61811,0.98644 -0.90123,1.43856 -0.28312,0.45212 -0.72583,1.13777 -0.98381,1.52367 -0.35393,0.52943 -0.41949,0.79422 -0.26713,1.07892 0.18811,0.35148 0.57462,0.37728 5.65087,0.37728 4.5227,0 5.5538,-0.0542 6.06573,-0.31894 z m -62.0481,16.13179 c -0.28388,-0.11426 -0.45062,-0.3297 -0.41102,-0.53108 0.12772,-0.64944 1.09418,-1.11622 2.92463,-1.41253 0.9964,-0.1613 1.93554,-0.3961 2.08698,-0.52178 0.15144,-0.12569 0.3375,-0.66023 0.41347,-1.18788 2.13177,-9.40493 4.9753,-18.83048 6.89218,-27.73342 0.33867,-1.35501 0.78484,-2.75781 0.51914,-3.92606 -0.15404,-0.12784 -0.82451,-0.32658 -1.48993,-0.44165 -2.10019,-0.36316 -2.13466,-0.3774 -2.13466,-0.88219 0,-0.25882 0.13117,-0.65009 0.29149,-0.8695 0.2773,-0.37949 0.64044,-0.402 7.45639,-0.46219 4.37295,-0.0386 7.3725,0.0156 7.69767,0.13929 0.42517,0.16164 0.51286,0.30685 0.43409,0.71888 -0.16761,0.87678 -0.64654,1.08926 -2.96666,1.31617 -2.73437,0.26742 -3.37903,0.64383 -3.5683,2.08348 -2.75303,10.74882 -5.33043,20.9705 -7.49299,30.78396 -0.002,0.35831 0.15302,0.48218 0.73951,0.59221 1.29172,0.24233 11.73978,-0.11192 13.55115,-0.45947 l 1.654,-0.31734 0.64065,-1.26454 c 0.35235,-0.6955 0.76404,-1.53481 0.91485,-1.86515 0.36896,-0.80815 0.55725,-1.18543 1.4346,-2.87462 0.55257,-1.06389 0.89866,-1.49254 1.31788,-1.63228 1.0778,-0.35927 1.14016,0.72703 0.72552,2.45853 -0.75151,2.61354 -1.36024,4.31703 -2.29871,7.0205 l -0.49406,1.38272 -14.18009,0.0391 c -8.42337,0.0232 -14.37399,-0.0389 -14.65773,-0.15315 z m -26.75222,0.61137 c -0.39561,-0.0989 -1.36269,-0.28453 -2.14908,-0.41242 -0.78639,-0.12789 -1.75604,-0.40738 -2.15479,-0.6211 -1.84924,-0.73067 -3.46704,-2.08744 -4.68859,-3.566 -0.75675,-0.75535 -1.22882,-1.77519 -1.60492,-2.5975 -0.53473,-1.23682 -0.57364,-1.53126 -0.65348,-4.94531 -0.0687,-2.93895 -0.0195,-3.87812 0.25872,-4.9322 0.33455,-1.88626 1.06336,-3.78304 1.55468,-5.4997 0.2353,-1.09718 1.21787,-3.3305 2.13146,-4.84469 0.27278,-0.45212 0.64178,-1.09947 0.81998,-1.43856 1.52892,-2.90923 5.13002,-6.16133 8.5411,-7.71332 0.28257,-0.12857 0.88369,-0.40432 1.33581,-0.61277 1.29069,-0.5951 4.13307,-1.26478 6.268,-1.47676 2.97234,-0.29514 7.43947,-0.0743 8.92042,0.44091 0.79352,0.25193 1.66099,0.44247 2.38255,0.72662 0.28257,0.16403 0.90405,0.48187 1.38106,0.70632 1.76197,1.10237 3.14273,2.64695 4.06491,4.2494 0.42176,0.63278 0.60543,1.40539 0.87468,2.03553 0.50849,0.87477 0.51648,7.05422 0.0113,8.73411 -0.32546,1.21828 -0.49451,2.47006 -0.9029,3.64195 -0.44665,1.01232 -0.62527,1.99087 -1.01533,3.03509 -1.74423,4.16308 -4.35085,8.44874 -8.13946,11.08647 -0.49401,0.32508 -1.12939,0.74463 -1.41196,0.93235 -0.7426,0.49331 -3.17392,1.64948 -3.46873,1.64948 -3.74341,0.99449 -8.46518,2.23325 -12.35543,1.4221 z m 6.84666,-2.54799 c 1.3807,-0.18377 2.47062,-0.44585 2.87712,-0.69184 2.38876,-1.1647 4.65527,-2.88646 6.25653,-4.93526 0.25543,-0.33686 0.8242,-1.31598 1.26393,-2.17583 0.47814,-0.8798 1.03147,-1.80292 1.36415,-2.68355 0.0801,-0.33846 0.30898,-0.89282 0.50856,-1.23191 0.62148,-1.84802 1.14005,-3.40987 1.5368,-5.24046 0.0815,-0.62167 0.28029,-1.45083 0.44173,-1.84259 0.44076,-1.06961 0.75266,-4.75017 0.61987,-7.31473 -0.1041,-2.01039 -0.19011,-2.41045 -0.74496,-3.46523 -0.69839,-1.32768 -2.44904,-3.09904 -3.26524,-3.3039 -2.82386,-1.00069 -6.39301,-1.35444 -9.27931,-0.51425 -3.29112,0.90068 -6.90837,3.21006 -8.59519,6.09154 -1.25968,2.36107 -1.85038,3.54321 -1.98947,3.98146 -0.40108,0.77794 -0.77274,1.55894 -1.02498,2.35316 -0.28856,1.06737 -0.70221,2.15282 -0.94924,3.14622 -0.9696,3.27231 -1.0833,6.37647 -1.09087,8.47211 -0.01,3.26821 0.057,4.55218 0.25627,4.9322 1.06978,2.03964 1.63385,2.66994 3.20615,3.5826 0.66706,0.3872 1.57923,0.67594 2.67161,0.84568 2.22473,0.3457 3.30572,0.34471 5.93654,-0.005 z M 77.49288,375.868 c -1.18681,-0.0802 -2.57399,-0.28695 -3.08263,-0.45947 -0.50863,-0.17253 -1.43342,-0.3784 -2.05508,-0.45749 -1.39978,-0.1781 -4.00007,-0.98871 -5.70286,-1.77781 -1.4769,-0.68442 -1.52711,-0.83958 -0.87341,-2.69946 0.683889,-2.58783 1.216011,-5.39766 1.84206,-7.70376 0.22192,-0.65037 0.49297,-1.75272 0.60232,-2.44967 0.20027,-1.27634 0.62642,-2.33308 1.20865,-2.99712 0.22601,-0.25777 0.62442,-0.35964 1.40654,-0.35964 0.89223,0 1.13262,0.0774 1.31826,0.42424 0.15101,0.28216 0.20597,1.85239 0.16409,4.68851 -0.0714,4.8356 -0.0874,4.77444 1.56797,5.99511 0.52873,0.38988 1.19953,0.91695 1.49068,1.17127 1.87835,1.00498 4.00167,1.80224 5.91532,2.3571 1.01205,0.28951 8.03887,0.27959 9.35063,-0.0132 2.03047,-0.45321 5.09496,-1.74392 6.26801,-2.63998 0.33909,-0.25902 0.83652,-0.6336 1.1054,-0.8324 0.93082,-0.6882 2.74196,-2.62649 3.41019,-3.64959 2.1002,-3.13043 3.30483,-6.96132 2.80935,-10.66522 -0.20933,-1.4074 -0.33377,-1.6843 -1.34548,-2.99371 -1.48159,-1.91757 -2.54598,-2.79896 -4.64366,-3.84529 -0.72918,-0.44793 -1.55128,-0.85264 -2.26059,-1.14775 -1.61325,-0.58162 -3.0872,-1.15807 -4.72669,-1.72861 -2.05294,-0.876 -4.37737,-1.6839 -6.10918,-2.73912 -3.31692,-2.19217 -5.68593,-3.69678 -7.39692,-6.61564 -0.43353,-0.49424 -1.29051,-4.29237 -1.29051,-5.71958 0.27838,-3.25392 1.21683,-6.73441 2.4159,-9.24317 1.70111,-3.52492 5.42301,-7.2693 8.98982,-9.04413 0.45212,-0.22497 1.00154,-0.54781 1.22095,-0.71741 0.67336,-0.35634 1.45287,-0.56487 2.06718,-0.8267 1.73561,-0.64787 3.45008,-1.21718 5.18621,-1.52856 0.87756,-0.12099 1.91925,-0.33417 2.31485,-0.47373 5.26411,-0.69785 10.92967,-0.0179 15.87087,0.46609 1.32553,0.12715 3.03609,0.41021 3.80125,0.62902 0.76515,0.21882 1.63448,0.39785 1.93183,0.39785 0.29735,0 0.66393,0.14856 0.81463,0.33013 0.39104,0.47118 0.28882,2.47901 -0.18806,3.69389 -0.51463,2.19113 -1.15558,3.94257 -1.5625,6.04589 -0.17626,1.46096 -0.91303,3.72956 -1.31817,4.0588 -0.47803,0.38846 -2.38656,0.33065 -2.72988,-0.0827 -0.20972,-0.2525 -0.30025,-1.2933 -0.35303,-4.0588 -0.0417,-2.1826 -0.16008,-3.82762 -0.28662,-3.98161 -2.17262,-1.93692 -5.19026,-2.5586 -7.72162,-3.12993 -2.15037,-0.51552 -3.46427,-0.51448 -7.10172,0.006 -2.60697,0.32605 -5.17088,1.15865 -7.32223,2.34308 -2.07481,1.12481 -3.957,3.08477 -4.85061,5.05104 -0.98231,1.63309 -1.22632,3.47394 -1.27604,4.76465 -0.0867,2.35796 -0.0777,2.41834 0.50169,3.34586 0.95459,1.52825 1.61277,2.31779 2.67385,3.20753 0.98069,0.82232 5.43082,3.11952 6.57948,3.39639 2.6283,0.97087 5.23694,2.17414 7.6266,3.05151 1.496,0.6872 2.64629,1.32209 3.94696,2.06975 3.96682,2.76485 6.35101,6.78446 6.54972,11.32348 0.21728,2.55366 -0.36642,4.20499 -0.9135,6.55164 -0.0781,0.45212 -0.31343,1.14434 -0.52293,1.53827 -0.69198,1.70214 -1.33205,3.44614 -2.27825,5.038 -1.51897,2.4946 -2.75416,4.02169 -4.94477,6.11332 -0.99312,0.99338 -2.219,1.88701 -3.30791,2.61108 -1.7253,1.00252 -3.52939,1.8503 -5.26311,2.48034 -2.05179,0.70353 -4.04805,1.27264 -6.02399,1.44262 -2.59849,0.215 -10.24705,0.2088 -13.49931,-0.0109 z"
         sodipodi:nodetypes="ccssccsssssssssssccssssssscccsssccccsccssccssscsssccssssssccssssscccccccccccsssssssccsccccccsssccsssssssccssscccccssssssssssccsssscccccsssccccssssssccssccssscccsscccsscsscsccscsssccssssccscccccsccsssccccssscsssccsccsscssssccsscccccccsscsssssccccsssssccssccccccccsccsccccssssccscsssssscscccssssssssscsssssssssccssssssscsscccssssccccsccccccccccscccccccccssscccccsccccccsscscccccscccssscssssccccssscccsssccscssscccsscsssssscsssccsssscccssscccssccscccsssssscccssscssscccccsssscccsscssccssssssssscccccccssssscccssssssccsssssssssscccsccssssssssssscccccssssssssscccccccssssssssscccsssscssccsscsssscccssscscccsccssssscccccccccscccccccccsssccccccccsscccsssccssssssccsssccscccccccscccccsssccsssccccccssccccccccccccc" />
      <path
         id="path1422-2"
         style="fill:#f06027;fill-opacity:1;fill-rule:nonzero"
         d="m 682.00118,305.48192 10.36622,-18.44056 121.13141,-0.0233 -10.43338,18.20108 z m 73.90809,-109.5738 10.36622,-18.44057 121.13141,-0.0233 -10.43338,18.20108 z M 49.82736,304.64801 60.426811,286.75503 175.88251,286.35486 310.55432,74.356762 l 103.3316,0.0011 -11.21262,18.666812 -83.2695,0.016 -133.05092,211.371846 z m 306.48454,-0.58494 -17.82354,-35.50764 103.90563,-175.734828 30.61763,-18.461133 50.08011,-0.002 21.33321,40.567991 -97.32026,166.22972 -37.28775,22.81541 z m 167.72183,-190.47403 -11.44037,-21.451039 -34.74773,0.05984 -22.59119,13.888439 -96.35507,163.56641 7.99372,15.8093 42.38127,0.25876 23.06841,-13.97187 z m 41.49009,173.35577 22.32529,-0.0113 20.41191,-194.852656 -22.6656,0.146307 10.49669,-18.020515 57.001,0.08539 -10.24913,17.77944 -17.25484,-0.06333 -18.01889,174.841534 112.91141,-174.011074 -11.47272,-0.1725 11.40286,-18.415391 52.20137,-0.02671 -12.2874,18.393164 -18.6378,0.14488 -125.84669,194.276971 17.40018,0.001 -12.15255,18.07267 -67.43173,0.0195 z M 823.14397,92.644151 833.51019,74.203586 954.6416,74.180299 944.20822,92.381377 Z"
         sodipodi:nodetypes="cccccccccccccccccccccccccccccccccccccccccccccccccccccccccccccc" />
    </g>
  </g>
</svg>
